<svg width="458" height="457" viewBox="0 0 458 457" fill="none" xmlns="http://www.w3.org/2000/svg">
<g id="airobot">
<g id="freepik--face-2--inject-7">
<path id="Vector" d="M167.76 380L168.1 380.05L167.76 380Z" fill="#263238" stroke="#263238" stroke-linejoin="round"/>
<path id="Vector_2" d="M177 381.19L176.49 381.14C175.19 381 173.88 380.86 172.57 380.69C174.06 380.88 175.53 381.05 177 381.19Z" fill="#263238" stroke="#263238" stroke-linejoin="round"/>
<path id="Vector_3" d="M256.63 89.27L256.84 89.35L257.29 89.5L256.63 89.27Z" fill="#263238" stroke="#263238" stroke-linejoin="round"/>
<path id="Vector_4" d="M173.87 335.67V405.52C173.87 418.951 179.205 431.831 188.702 441.328C198.199 450.825 211.079 456.16 224.51 456.16C237.941 456.16 250.821 450.825 260.318 441.328C269.815 431.831 275.15 418.951 275.15 405.52V337.42L173.87 335.67Z" fill="#263238" stroke="#263238" stroke-linecap="round" stroke-linejoin="round"/>
<path id="Vector_5" d="M264.93 386.57C264.93 391.44 262.2 395.39 258.83 395.39C255.46 395.39 252.74 391.44 252.74 386.57C252.74 381.7 255.47 377.76 258.83 377.76C262.19 377.76 264.93 381.7 264.93 386.57Z" fill="#7D7D7D" stroke="#263238" stroke-linejoin="round"/>
<path id="Vector_6" d="M264.93 416.72C264.93 421.59 262.2 425.54 258.83 425.54C255.46 425.54 252.74 421.54 252.74 416.72C252.74 411.9 255.47 407.91 258.83 407.91C262.19 407.91 264.93 411.86 264.93 416.72Z" fill="#7D7D7D" stroke="#263238" stroke-linejoin="round"/>
<path id="Vector_7" d="M277.2 98.71C277.2 98.71 276.49 98.25 275.2 97.52C274.37 97.05 273.29 96.46 271.98 95.79H271.89L270.6 95.14L270.44 95.06L269.06 94.4L268.81 94.28L267.34 93.6L267.04 93.46L265.44 92.75L265.13 92.62L263.38 91.88L262.61 91.57L261.18 91L260.27 90.65L258.95 90.15L259.6 90.39L259.25 90.25L258.05 89.82L256.84 89.39L255.52 88.93L254.19 88.49L254.84 88.7L254.1 88.45C253.01 88.09 251.88 87.74 250.72 87.4L249.72 87.11H249.66H249.77H249.64C248.83 86.87 248 86.64 247.16 86.42L246 86L243.21 85.32L242.32 85.1L243.27 85.02L242.66 84.89C241.57 84.65 240.48 84.42 239.36 84.2H239.23C238.05 83.98 236.84 83.77 235.62 83.56C221.195 81.1607 206.464 81.2791 192.08 83.91C142.58 93.01 115.27 140.8 111.29 160.72C107.31 180.64 109 219.9 109 233C109 246.1 104.45 267.13 111.85 287.62C119.25 308.11 136.31 345.62 140.85 355.32C145.39 365.02 150.52 376.94 167.59 379.79C167.641 379.871 167.698 379.948 167.76 380.02L168.1 380.07C170.92 380.51 173.72 380.86 176.49 381.15L177.01 381.2C178.62 381.36 180.22 381.49 181.8 381.6C183.38 381.7 184.93 381.78 186.46 381.84C195.91 382.16 204.3 381.48 210.05 379.79C219.73 376.94 286.3 343.37 295.97 333.13C302.97 325.68 307.33 292.95 309.16 275.66C306.545 276.661 303.77 277.176 300.97 277.18C283.08 277.18 268.58 256.18 268.58 230.33C268.58 204.48 283.08 183.49 300.97 183.49C312.18 183.49 322.06 191.73 327.87 204.25C328.663 198.314 329.031 192.329 328.97 186.34C328.41 149.35 297.69 111.23 277.2 98.71Z" fill="#7D7D7D" stroke="#263238" stroke-linejoin="round"/>
<path id="Vector_8" d="M261.8 91.19L261.23 90.98L261.91 91.24L261.8 91.19Z" fill="#263238" stroke="#263238" stroke-linejoin="round"/>
<path id="Vector_9" d="M258.11 89.8L259.25 90.21L258.72 90.02L258.31 89.87L257.31 89.53L256.79 89.34L257.31 89.52H257.25L258.01 89.8H258.11Z" fill="#263238" stroke="#263238" stroke-linejoin="round"/>
<path id="Vector_10" d="M261.16 91H261.21H261.16Z" fill="#263238" stroke="#263238" stroke-linejoin="round"/>
<path id="Vector_11" d="M254.84 88.66L254.1 88.41L254.84 88.66Z" fill="#263238" stroke="#263238" stroke-linejoin="round"/>
<path id="Vector_12" d="M260.49 90.69L260.25 90.6L261.66 91.14L261.05 90.91L260.6 90.73L259.72 90.39L259.41 90.27L259.71 90.39H259.6L260.27 90.65L260.49 90.69Z" fill="#263238" stroke="#263238" stroke-linejoin="round"/>
<path id="Vector_13" d="M255.52 88.89L256.69 89.29L256.25 89.14L255.86 89.01L254.86 88.66L255.52 88.89Z" fill="#263238" stroke="#263238" stroke-linejoin="round"/>
<path id="Vector_14" d="M235.1 83.49L235.58 83.57L235.1 83.49Z" fill="#263238" stroke="#263238" stroke-linejoin="round"/>
<path id="Vector_15" d="M215.038 248.705C231.337 246.086 242.426 230.75 239.807 214.451C237.188 198.152 221.852 187.063 205.553 189.682C189.254 192.302 178.165 207.638 180.784 223.936C183.404 240.235 198.74 251.324 215.038 248.705Z" fill="#263238" stroke="#263238" stroke-linejoin="round"/>
<path id="Vector_16" d="M210.3 234.17C218.573 234.17 225.28 227.463 225.28 219.19C225.28 210.917 218.573 204.21 210.3 204.21C202.027 204.21 195.32 210.917 195.32 219.19C195.32 227.463 202.027 234.17 210.3 234.17Z" fill="#6B6B6B" stroke="#263238" stroke-linejoin="round"/>
<path id="Vector_17" d="M210.3 230.43C216.508 230.43 221.54 225.398 221.54 219.19C221.54 212.982 216.508 207.95 210.3 207.95C204.092 207.95 199.06 212.982 199.06 219.19C199.06 225.398 204.092 230.43 210.3 230.43Z" fill="#263238" stroke="#263238" stroke-linejoin="round"/>
<path id="Vector_18" d="M210.3 225.75C213.923 225.75 216.86 222.813 216.86 219.19C216.86 215.567 213.923 212.63 210.3 212.63C206.677 212.63 203.74 215.567 203.74 219.19C203.74 222.813 206.677 225.75 210.3 225.75Z" fill="#92E3A9" stroke="#263238" stroke-linejoin="round"/>
<path id="Vector_19" d="M133.53 249.08C146.067 249.08 156.23 235.698 156.23 219.19C156.23 202.682 146.067 189.3 133.53 189.3C120.993 189.3 110.83 202.682 110.83 219.19C110.83 235.698 120.993 249.08 133.53 249.08Z" fill="#263238" stroke="#263238" stroke-linejoin="round"/>
<path id="Vector_20" d="M130.55 234.17C136.835 234.17 141.93 227.463 141.93 219.19C141.93 210.917 136.835 204.21 130.55 204.21C124.265 204.21 119.17 210.917 119.17 219.19C119.17 227.463 124.265 234.17 130.55 234.17Z" fill="#6B6B6B" stroke="#263238" stroke-linejoin="round"/>
<path id="Vector_21" d="M130.55 230.43C135.267 230.43 139.09 225.398 139.09 219.19C139.09 212.982 135.267 207.95 130.55 207.95C125.833 207.95 122.01 212.982 122.01 219.19C122.01 225.398 125.833 230.43 130.55 230.43Z" fill="#263238" stroke="#263238" stroke-linejoin="round"/>
<path id="Vector_22" d="M135.53 219.19C135.53 215.57 133.3 212.63 130.53 212.63C127.76 212.63 125.53 215.57 125.53 219.19C125.53 222.81 127.76 225.74 130.53 225.74C133.3 225.74 135.53 222.81 135.53 219.19Z" fill="#92E3A9" stroke="#263238" stroke-linejoin="round"/>
<path id="Vector_23" d="M161.08 262.61C158.429 260.496 155.224 259.194 151.85 258.86C147.34 258.64 143.93 262.19 142.7 266.18C140.39 273.7 136.34 279.48 139.81 282.37C143.28 285.26 158.23 287 158.23 287L158.16 286.82C161.78 287.11 174.51 287.95 177.73 285.66C181.48 283 169.13 268.51 161.08 262.61Z" fill="#263238" stroke="#263238" stroke-linejoin="round"/>
<path id="Vector_24" d="M253.46 246.94C229.7 258.23 229.7 287.76 229.7 287.76L207.53 298.38L203.7 308.38H203.57L203.65 308.51L203.57 308.71H203.76L205.25 311.26L201.83 313.49C203.51 313.81 205.26 314.1 207.05 314.36L207.53 315.18C207.53 315.18 235.53 318.79 253.46 316.3C253.46 316.3 270.09 311.39 275.46 302.57C280.83 293.75 288.4 266.86 288.4 266.86C276.34 231.54 253.46 246.94 253.46 246.94Z" fill="#263238" stroke="#263238" stroke-linejoin="round"/>
<path id="Vector_25" d="M123.68 317C127.635 316.68 131.562 316.075 135.43 315.19L135.68 314.37C136.62 314.11 137.53 313.82 138.41 313.5L136.62 311.27L137.4 308.72H137.5V308.52V308.39H137.44L135.44 298.39L123.8 287.76C123.8 287.76 123.8 258.23 111.35 246.94C110.51 245.931 109.494 245.084 108.35 244.44C107.42 256.8 106.35 272.36 111.81 287.61C114.73 295.66 119.13 306.35 123.68 317Z" fill="#263238" stroke="#263238" stroke-linejoin="round"/>
<path id="Vector_26" d="M300.88 277.17C318.769 277.17 333.27 256.195 333.27 230.32C333.27 204.445 318.769 183.47 300.88 183.47C282.992 183.47 268.49 204.445 268.49 230.32C268.49 256.195 282.992 277.17 300.88 277.17Z" fill="#263238" stroke="#263238" stroke-linejoin="round"/>
<path id="Vector_27" d="M300.88 262.93C313.334 262.93 323.43 248.33 323.43 230.32C323.43 212.31 313.334 197.71 300.88 197.71C288.426 197.71 278.33 212.31 278.33 230.32C278.33 248.33 288.426 262.93 300.88 262.93Z" fill="#7A7A7A" stroke="#263238" stroke-linejoin="round"/>
<path id="Vector_28" d="M300.88 250.42C308.551 250.42 314.77 241.421 314.77 230.32C314.77 219.219 308.551 210.22 300.88 210.22C293.209 210.22 286.99 219.219 286.99 230.32C286.99 241.421 293.209 250.42 300.88 250.42Z" fill="#7A7A7A" stroke="#263238" stroke-linejoin="round"/>
<path id="Vector_29" d="M132.89 309.43H145.6V322.05C145.6 323.037 145.208 323.983 144.51 324.68C143.813 325.378 142.867 325.77 141.88 325.77H136.62C135.633 325.77 134.687 325.378 133.99 324.68C133.292 323.983 132.9 323.037 132.9 322.05V309.43H132.89Z" fill="white" stroke="#263238" stroke-linejoin="round"/>
<path id="Vector_30" d="M145.58 309.43H158.29V322.05C158.29 323.037 157.898 323.983 157.2 324.68C156.503 325.378 155.557 325.77 154.57 325.77H149.3C148.313 325.77 147.367 325.378 146.67 324.68C145.972 323.983 145.58 323.037 145.58 322.05V309.43Z" fill="white" stroke="#263238" stroke-linejoin="round"/>
<path id="Vector_31" d="M158.27 309.43H171V322.05C171 323.037 170.608 323.983 169.91 324.68C169.213 325.378 168.267 325.77 167.28 325.77H162C161.013 325.77 160.067 325.378 159.37 324.68C158.672 323.983 158.28 323.037 158.28 322.05V309.43H158.27Z" fill="white" stroke="#263238" stroke-linejoin="round"/>
<path id="Vector_32" d="M171 309.43H183.71V322.05C183.71 323.037 183.318 323.983 182.62 324.68C181.923 325.378 180.977 325.77 179.99 325.77H174.73C173.743 325.77 172.797 325.378 172.1 324.68C171.402 323.983 171.01 323.037 171.01 322.05V309.43H171Z" fill="white" stroke="#263238" stroke-linejoin="round"/>
<path id="Vector_33" d="M183.66 309.43H196.37V322.05C196.37 323.037 195.978 323.983 195.28 324.68C194.583 325.378 193.637 325.77 192.65 325.77H187.39C186.403 325.77 185.457 325.378 184.76 324.68C184.062 323.983 183.67 323.037 183.67 322.05V309.43H183.66Z" fill="white" stroke="#263238" stroke-linejoin="round"/>
<path id="Vector_34" d="M196.35 309.43H209.06V322.05C209.06 323.037 208.668 323.983 207.97 324.68C207.273 325.378 206.327 325.77 205.34 325.77H200.08C199.093 325.77 198.147 325.378 197.45 324.68C196.752 323.983 196.36 323.037 196.36 322.05V309.43H196.35Z" fill="white" stroke="#263238" stroke-linejoin="round"/>
<path id="Vector_35" d="M136.61 293.4H141.87C142.857 293.4 143.803 293.792 144.5 294.49C145.198 295.187 145.59 296.133 145.59 297.12V309.74H132.89V297.13C132.889 296.641 132.984 296.156 133.17 295.703C133.357 295.251 133.63 294.84 133.976 294.493C134.322 294.147 134.732 293.872 135.184 293.684C135.636 293.497 136.121 293.4 136.61 293.4Z" fill="white" stroke="#263238" stroke-linejoin="round"/>
<path id="Vector_36" d="M149.3 293.4H154.56C155.547 293.4 156.493 293.792 157.19 294.49C157.888 295.187 158.28 296.133 158.28 297.12V309.74H145.58V297.13C145.579 296.641 145.674 296.156 145.86 295.703C146.047 295.251 146.32 294.84 146.666 294.493C147.012 294.147 147.422 293.872 147.874 293.684C148.326 293.497 148.811 293.4 149.3 293.4Z" fill="white" stroke="#263238" stroke-linejoin="round"/>
<path id="Vector_37" d="M162 293.4H167.26C168.247 293.4 169.193 293.792 169.89 294.49C170.588 295.187 170.98 296.133 170.98 297.12V309.74H158.27V297.13C158.269 296.64 158.364 296.154 158.551 295.701C158.738 295.248 159.013 294.836 159.36 294.49C159.706 294.143 160.118 293.868 160.571 293.681C161.024 293.494 161.51 293.399 162 293.4Z" fill="white" stroke="#263238" stroke-linejoin="round"/>
<path id="Vector_38" d="M174.69 293.4H180C180.987 293.4 181.933 293.792 182.63 294.49C183.328 295.187 183.72 296.133 183.72 297.12V309.74H171V297.13C170.997 296.147 171.384 295.203 172.075 294.504C172.767 293.805 173.707 293.408 174.69 293.4Z" fill="white" stroke="#263238" stroke-linejoin="round"/>
<path id="Vector_39" d="M187.38 293.4H192.64C193.627 293.4 194.573 293.792 195.27 294.49C195.968 295.187 196.36 296.133 196.36 297.12V309.74H183.66V297.13C183.659 296.641 183.754 296.156 183.94 295.703C184.127 295.251 184.4 294.84 184.746 294.493C185.092 294.147 185.502 293.872 185.954 293.684C186.406 293.497 186.891 293.4 187.38 293.4Z" fill="white" stroke="#263238" stroke-linejoin="round"/>
<path id="Vector_40" d="M200.08 293.4H205.34C206.327 293.4 207.273 293.792 207.97 294.49C208.668 295.187 209.06 296.133 209.06 297.12V309.74H196.35V297.13C196.349 296.64 196.444 296.154 196.631 295.701C196.818 295.248 197.093 294.836 197.44 294.49C197.786 294.143 198.198 293.868 198.651 293.681C199.104 293.494 199.59 293.399 200.08 293.4Z" fill="white" stroke="#263238" stroke-linejoin="round"/>
<path id="Vector_41" d="M299.37 294.87C297.93 299.48 294.37 302.49 291.48 301.58C288.59 300.67 287.34 296.19 288.77 291.58C290.2 286.97 293.77 283.96 296.66 284.87C299.55 285.78 300.8 290.26 299.37 294.87Z" fill="#263238" stroke="#263238" stroke-linejoin="round"/>
<path id="Vector_42" d="M289.74 315.47C288.95 318.01 287 319.67 285.38 319.17C283.76 318.67 283.1 316.17 283.89 313.65C284.68 311.13 286.63 309.45 288.25 309.95C289.87 310.45 290.53 312.92 289.74 315.47Z" fill="#263238" stroke="#263238" stroke-linejoin="round"/>
<path id="Vector_43" d="M232.05 219.19H268.04" stroke="#263238" stroke-linejoin="round"/>
<path id="Vector_44" d="M199.19 189.17C199.19 189.17 193.85 115.7 263.38 91.84" stroke="#263238" stroke-linejoin="round"/>
<path id="Vector_45" d="M134.35 189.17C134.35 189.17 128.05 108 210 81.64" stroke="#263238" stroke-linejoin="round"/>
<path id="Vector_46" d="M289.09 107.81C289.09 107.81 277.71 105.54 256.09 120.9C256.09 120.9 267.7 127.46 272.43 138.11L258.23 147.58" stroke="#263238" stroke-linejoin="round"/>
<path id="Vector_47" d="M228.21 83.35C228.21 83.35 199.76 93 182.69 119.19" stroke="#263238" stroke-linejoin="round"/>
<path id="Vector_48" d="M277.56 110.11C277.56 110.11 294.67 117.39 305.35 143.03" stroke="#263238" stroke-linejoin="round"/>
<path id="Vector_49" d="M149.37 104.19C149.37 104.19 137.93 115.63 133.59 126.67C133.59 126.67 124.13 134.56 119.79 145.21L121.37 150.73" stroke="#263238" stroke-linejoin="round"/>
<path id="Vector_50" d="M187.29 249.56C187.827 248.363 188.431 247.198 189.1 246.07" stroke="#263238" stroke-linejoin="round"/>
<path id="Vector_51" d="M177.73 285.7C177.73 285.7 180.99 284.05 181.41 276.8C181.824 269.127 183.191 261.535 185.48 254.2" stroke="#263238" stroke-linejoin="round"/>
<path id="Vector_52" d="M218.51 369.75C219.44 370.46 220.4 371.15 221.38 371.81" stroke="#263238" stroke-linejoin="round"/>
<path id="Vector_53" d="M140.84 355.31L149.13 335.4H194.64C194.64 335.4 200.64 353.31 214.4 366.25" stroke="#263238" stroke-linejoin="round"/>
<path id="Vector_54" d="M264.15 148C264.15 147.062 263.872 146.145 263.35 145.366C262.829 144.586 262.088 143.978 261.222 143.62C260.355 143.261 259.401 143.168 258.482 143.352C257.562 143.536 256.717 143.988 256.055 144.652C255.392 145.316 254.942 146.161 254.76 147.081C254.578 148.002 254.673 148.955 255.034 149.821C255.394 150.687 256.003 151.426 256.784 151.946C257.565 152.466 258.482 152.742 259.42 152.74C260.042 152.74 260.658 152.617 261.232 152.379C261.807 152.141 262.329 151.791 262.768 151.351C263.208 150.911 263.556 150.388 263.793 149.813C264.03 149.238 264.151 148.622 264.15 148Z" fill="#92E3A9" stroke="#263238" stroke-linejoin="round"/>
<path id="Vector_55" d="M311.4 147.21C311.271 146.28 310.868 145.408 310.243 144.707C309.618 144.006 308.799 143.506 307.889 143.272C306.98 143.037 306.021 143.078 305.135 143.389C304.248 143.7 303.474 144.268 302.911 145.02C302.348 145.771 302.021 146.674 301.972 147.612C301.922 148.55 302.152 149.481 302.633 150.288C303.114 151.095 303.824 151.741 304.673 152.144C305.522 152.546 306.471 152.688 307.4 152.55C308.637 152.369 309.752 151.706 310.502 150.705C311.251 149.705 311.574 148.448 311.4 147.21Z" fill="#92E3A9" stroke="#263238" stroke-linejoin="round"/>
<path id="Vector_56" d="M188.18 118.9C188.29 116.54 186.01 115.1 183.1 115.69C180.19 116.28 177.72 118.69 177.61 121.03C177.5 123.37 179.78 124.84 182.7 124.25C185.62 123.66 188.07 121.27 188.18 118.9Z" fill="#92E3A9" stroke="#263238" stroke-linejoin="round"/>
<path id="Vector_57" d="M123.34 151.52C123.34 148.91 122.28 146.79 120.97 146.79C119.66 146.79 118.6 148.91 118.6 151.52C118.6 154.13 119.66 156.26 120.97 156.26C122.28 156.26 123.34 154.14 123.34 151.52Z" fill="#92E3A9" stroke="#263238" stroke-linejoin="round"/>
<path id="Vector_58" d="M240.77 191.29C240.768 190.667 240.582 190.059 240.234 189.543C239.887 189.026 239.394 188.624 238.819 188.387C238.243 188.15 237.61 188.089 236.999 188.212C236.389 188.334 235.829 188.635 235.389 189.076C234.95 189.517 234.651 190.078 234.53 190.689C234.409 191.3 234.472 191.933 234.711 192.508C234.949 193.083 235.353 193.574 235.871 193.92C236.389 194.266 236.997 194.45 237.62 194.45C238.035 194.45 238.445 194.368 238.828 194.209C239.211 194.05 239.558 193.817 239.851 193.524C240.144 193.23 240.375 192.882 240.533 192.499C240.691 192.115 240.771 191.705 240.77 191.29Z" fill="#92E3A9" stroke="#263238" stroke-linejoin="round"/>
<path id="Vector_59" d="M118.7 191.37C118.7 189.55 117.7 188.07 116.45 188.07C115.2 188.07 114.2 189.55 114.2 191.37C114.2 193.19 115.2 194.68 116.45 194.68C117.7 194.68 118.7 193.2 118.7 191.37Z" fill="#92E3A9" stroke="#263238" stroke-linejoin="round"/>
<path id="Vector_60" d="M113.86 199.22C113.86 197.35 113.12 195.84 112.21 195.84C111.3 195.84 110.57 197.35 110.57 199.22C110.57 201.09 111.31 202.61 112.21 202.61C113.11 202.61 113.86 201.09 113.86 199.22Z" fill="#92E3A9" stroke="#263238" stroke-linejoin="round"/>
<path id="Vector_61" d="M111.34 207C111.34 205.52 110.71 204.32 109.94 204.32C109.17 204.32 108.54 205.52 108.54 207C108.54 208.48 109.17 209.68 109.94 209.68C110.71 209.68 111.34 208.47 111.34 207Z" fill="#92E3A9" stroke="#263238" stroke-linejoin="round"/>
<path id="Vector_62" d="M246.72 199.7C246.72 199.077 246.535 198.468 246.189 197.95C245.843 197.432 245.351 197.028 244.775 196.79C244.2 196.551 243.566 196.489 242.955 196.611C242.344 196.732 241.783 197.032 241.343 197.473C240.902 197.913 240.602 198.474 240.481 199.085C240.359 199.696 240.421 200.33 240.66 200.905C240.898 201.481 241.302 201.973 241.82 202.319C242.338 202.665 242.947 202.85 243.57 202.85C244.405 202.85 245.207 202.518 245.797 201.927C246.388 201.337 246.72 200.535 246.72 199.7Z" fill="#92E3A9" stroke="#263238" stroke-linejoin="round"/>
<path id="Vector_63" d="M249.17 209.15C249.17 208.528 248.986 207.92 248.64 207.402C248.295 206.884 247.804 206.481 247.23 206.242C246.656 206.003 246.023 205.939 245.413 206.059C244.802 206.179 244.241 206.477 243.8 206.916C243.358 207.354 243.057 207.914 242.933 208.523C242.809 209.133 242.869 209.766 243.104 210.342C243.339 210.918 243.74 211.411 244.255 211.759C244.771 212.108 245.378 212.296 246 212.3C246.415 212.303 246.827 212.223 247.212 212.066C247.596 211.909 247.946 211.677 248.24 211.384C248.535 211.092 248.769 210.744 248.928 210.36C249.088 209.977 249.17 209.565 249.17 209.15Z" fill="#92E3A9" stroke="#263238" stroke-linejoin="round"/>
</g>
<g id="rightHeadRobot">
<path id="Vector_64" d="M338.52 182.71V222.95H349.17" stroke="#92E3A9" stroke-width="3" stroke-linecap="round" stroke-linejoin="round"/>
<path id="Vector_65" d="M347.99 234.79H336.15V275.63" stroke="#92E3A9" stroke-width="3" stroke-linecap="round" stroke-linejoin="round"/>
<path id="Vector_66" d="M345.03 228.87H318.39" stroke="#92E3A9" stroke-width="3" stroke-linecap="round" stroke-linejoin="round"/>
<path id="Vector_67" d="M227.7 380.69C226.213 380.497 224.723 380.287 223.23 380.06C224.723 380.293 226.213 380.503 227.7 380.69Z" fill="white" stroke="#263238" stroke-linejoin="round"/>
<path id="Vector_68" d="M222.89 380L223.23 380.05L222.89 380Z" fill="white" stroke="#263238" stroke-linejoin="round"/>
<path id="Vector_69" d="M236.88 381.59C235.32 381.48 233.74 381.35 232.14 381.19C233.74 381.35 235.32 381.48 236.88 381.59Z" fill="white" stroke="#263238" stroke-linejoin="round"/>
<path id="Vector_70" d="M241.6 381.83C240.08 381.77 238.53 381.7 236.95 381.59C238.53 381.7 240.08 381.77 241.6 381.83Z" fill="white" stroke="#263238" stroke-linejoin="round"/>
<path id="Vector_71" d="M232.13 381.19L231.62 381.14C230.32 381 229.01 380.86 227.7 380.69C229.18 380.88 230.66 381.05 232.13 381.19Z" fill="white" stroke="#263238" stroke-linejoin="round"/>
<path id="Vector_72" d="M311.75 89.27L311.96 89.35L312.42 89.5L311.75 89.27Z" fill="white" stroke="#263238" stroke-linejoin="round"/>
<path id="Vector_73" d="M332.33 98.71C332.33 98.71 331.62 98.25 330.33 97.52C329.5 97.05 328.42 96.46 327.11 95.79H327.02L325.73 95.14L325.57 95.06L324.19 94.4L323.94 94.28L322.47 93.6L322.17 93.46L320.57 92.75L320.26 92.62L318.51 91.88L317.74 91.57L316.31 91L315.4 90.65L314.08 90.15L314.73 90.39L314.38 90.25L313.17 89.82C312.78 89.67 312.37 89.53 311.96 89.39L310.65 88.93L309.32 88.49L309.96 88.7L309.23 88.45H309.18C308.1 88.09 306.97 87.74 305.81 87.4L304.81 87.11H304.75H304.86H304.73C303.92 86.87 303.09 86.64 302.25 86.42L301.09 86L298.3 85.32L297.3 85.08L297 85.02C296.11 85.09 250.74 88.73 228.2 119.15C205.44 149.88 215.12 199.95 214.55 214.15C213.98 228.35 212.27 244.87 208.86 251.7C205.45 258.53 202.6 257.96 204.3 262.51C206 267.06 213.42 287 213.42 287L208.3 300.08L213.42 310.32C213.42 310.32 208.87 317.15 212.28 322.84C214.081 326.053 216.617 328.794 219.68 330.84C219.68 330.84 222.52 347.34 218.54 357.58C215.16 366.26 219.96 376.15 222.89 380L223.23 380.05C226.05 380.49 228.85 380.84 231.62 381.13L232.14 381.18C233.75 381.34 235.35 381.47 236.93 381.58C238.51 381.68 240.06 381.76 241.59 381.82C251.04 382.14 259.42 381.46 265.18 379.77C274.86 376.92 341.43 343.35 351.1 333.11C358.1 325.66 362.46 292.93 364.29 275.64C361.675 276.641 358.9 277.156 356.1 277.16C338.21 277.16 323.71 256.16 323.71 230.31C323.71 204.46 338.21 183.47 356.1 183.47C367.31 183.47 377.19 191.71 383 204.23C383.793 198.294 384.161 192.309 384.1 186.32C383.54 149.35 352.81 111.23 332.33 98.71ZM297.1 229.09C289.73 235.77 279.71 243.37 272.22 243.37C264.73 243.37 254.71 235.77 247.34 229.09C245.956 227.838 244.85 226.309 244.093 224.603C243.337 222.897 242.946 221.051 242.946 219.185C242.946 217.319 243.337 215.473 244.093 213.767C244.85 212.061 245.956 210.532 247.34 209.28C254.71 202.6 264.73 195 272.22 195C279.71 195 289.73 202.6 297.1 209.28C298.484 210.532 299.59 212.061 300.347 213.767C301.103 215.473 301.494 217.319 301.494 219.185C301.494 221.051 301.103 222.897 300.347 224.603C299.59 226.309 298.484 227.838 297.1 229.09V229.09Z" fill="white" stroke="#263238" stroke-linejoin="round"/>
<g id="Vector_74">
<path d="M290.14 363.6C291.29 363.92 292.46 364.22 293.67 364.49Z" fill="white"/>
<path d="M290.14 363.6C291.29 363.92 292.46 364.22 293.67 364.49" stroke="#263238" stroke-linejoin="round"/>
</g>
<g id="Vector_75">
<path d="M240.44 310.71C240.44 310.71 246.19 348.53 285.26 362.09Z" fill="white"/>
<path d="M240.44 310.71C240.44 310.71 246.19 348.53 285.26 362.09" stroke="#263238" stroke-linejoin="round"/>
</g>
<path id="Vector_76" d="M316.93 91.19L316.36 90.98L317.04 91.24L316.93 91.19Z" fill="white" stroke="#263238" stroke-linejoin="round"/>
<path id="Vector_77" d="M313.24 89.8L314.38 90.21L313.85 90.02L313.44 89.87L312.44 89.53L311.92 89.34L312.44 89.52H312.38L313.13 89.8H313.24Z" fill="white" stroke="#263238" stroke-linejoin="round"/>
<path id="Vector_78" d="M316.28 91H316.33H316.28Z" fill="white" stroke="#263238" stroke-linejoin="round"/>
<path id="Vector_79" d="M310 88.66L309.26 88.41L310 88.66Z" fill="white" stroke="#263238" stroke-linejoin="round"/>
<path id="Vector_80" d="M315.62 90.69L315.38 90.6L316.78 91.14L316.18 90.91L315.73 90.73L314.84 90.39L314.53 90.27L314.84 90.39H314.73L315.4 90.65L315.62 90.69Z" fill="white" stroke="#263238" stroke-linejoin="round"/>
<path id="Vector_81" d="M310.65 88.89L311.82 89.29L311.38 89.14L311 89L310 88.65L310.65 88.89Z" fill="white" stroke="#263238" stroke-linejoin="round"/>
<path id="Vector_82" d="M215 261C209.8 258.1 204 259.84 204 259.84H203.85C203.762 260.791 203.92 261.748 204.31 262.62C206.02 267.17 213.42 287.09 213.42 287.09C213.42 287.09 229.42 282.42 231.76 277.8C234.1 273.18 220.2 263.87 215 261Z" fill="#263238" stroke="#263238" stroke-linejoin="round"/>
<path id="Vector_83" d="M208.3 300.12C208.3 300.12 215.57 296.83 225.4 301.46C230.778 303.884 235.82 306.993 240.4 310.71H213.4C213.4 310.71 209.12 308.62 208.3 300.12Z" fill="#263238" stroke="#263238" stroke-linejoin="round"/>
<path id="Vector_84" d="M213.42 310.71C213.42 310.71 209.21 312.45 210.94 319.39C212.67 326.33 219.68 330.85 219.68 330.85C219.68 330.85 238.68 329.22 240.44 310.71H213.42Z" fill="white" stroke="#263238" stroke-linejoin="round"/>
<g id="Vector_85">
<path d="M345.16 114.84C348.41 115.22 350.68 115.84 351.48 116.39Z" fill="white"/>
<path d="M345.16 114.84C348.41 115.22 350.68 115.84 351.48 116.39" stroke="#263238" stroke-linejoin="round"/>
</g>
<path id="Vector_86" d="M273 192.79C272.87 180.06 274.52 154.79 287.82 136.06C301.12 117.33 326.46 113.83 340.9 114.5" stroke="#263238" stroke-linejoin="round"/>
<path id="Vector_87" d="M296.35 219.63H324.3" stroke="#263238" stroke-linejoin="round"/>
<path id="Vector_88" d="M352 215.29C346.26 215.29 341.61 222.02 341.61 230.29C341.61 238.56 346.26 245.29 352 245.29H378.42V215.29H352Z" fill="#263238" stroke="#263238" stroke-linejoin="round"/>
<path id="Vector_89" d="M378.46 245.36C384.204 245.36 388.86 238.626 388.86 230.32C388.86 222.014 384.204 215.28 378.46 215.28C372.716 215.28 368.06 222.014 368.06 230.32C368.06 238.626 372.716 245.36 378.46 245.36Z" fill="white" stroke="#263238" stroke-linejoin="round"/>
<path id="Vector_90" d="M386.47 199.42C374.67 199.42 365.1 213.25 365.1 230.32C365.1 247.39 374.67 261.23 386.47 261.23H413.13V199.42H386.47Z" fill="white" stroke="#263238" stroke-linejoin="round"/>
<path id="Vector_91" d="M413.13 261.23C424.932 261.23 434.5 247.391 434.5 230.32C434.5 213.249 424.932 199.41 413.13 199.41C401.328 199.41 391.76 213.249 391.76 230.32C391.76 247.391 401.328 261.23 413.13 261.23Z" fill="white" stroke="#263238" stroke-linejoin="round"/>
<path id="Vector_92" d="M416.83 277.17C434.718 277.17 449.22 256.195 449.22 230.32C449.22 204.445 434.718 183.47 416.83 183.47C398.941 183.47 384.44 204.445 384.44 230.32C384.44 256.195 398.941 277.17 416.83 277.17Z" fill="#263238" stroke="#263238" stroke-linejoin="round"/>
<path id="Vector_93" d="M424.35 277.17C442.239 277.17 456.74 256.195 456.74 230.32C456.74 204.445 442.239 183.47 424.35 183.47C406.462 183.47 391.96 204.445 391.96 230.32C391.96 256.195 406.462 277.17 424.35 277.17Z" fill="white" stroke="#263238" stroke-linejoin="round"/>
<path id="Vector_94" d="M424.35 249.65C431.734 249.65 437.72 240.996 437.72 230.32C437.72 219.644 431.734 210.99 424.35 210.99C416.966 210.99 410.98 219.644 410.98 230.32C410.98 240.996 416.966 249.65 424.35 249.65Z" fill="#263238" stroke="#263238" stroke-linejoin="round"/>
<path id="Vector_95" d="M427.67 249.65C435.054 249.65 441.04 240.996 441.04 230.32C441.04 219.644 435.054 210.99 427.67 210.99C420.286 210.99 414.3 219.644 414.3 230.32C414.3 240.996 420.286 249.65 427.67 249.65Z" fill="white" stroke="#263238" stroke-linejoin="round"/>
<path id="Vector_96" d="M434.49 213.19L424.35 249.66" stroke="#263238" stroke-linejoin="round"/>
<path id="Vector_97" d="M358.43 224.8H346.43" stroke="#92E3A9" stroke-width="3" stroke-linecap="round" stroke-linejoin="round"/>
<path id="Vector_98" d="M364.14 217.41H352.14" stroke="#92E3A9" stroke-width="3" stroke-linecap="round" stroke-linejoin="round"/>
<path id="Vector_99" d="M357.57 232.55H345.57" stroke="#92E3A9" stroke-width="3" stroke-linecap="round" stroke-linejoin="round"/>
<path id="Vector_100" d="M362.15 240H350.15" stroke="#92E3A9" stroke-width="3" stroke-linecap="round" stroke-linejoin="round"/>
<path id="Vector_101" d="M332.55 382.5C331 382.5 329.74 384.32 329.74 386.57C329.74 388.82 331 390.64 332.55 390.64H339.69V382.5H332.55Z" fill="white" stroke="#263238" stroke-linejoin="round"/>
<path id="Vector_102" d="M342.51 386.57C342.51 388.82 341.25 390.64 339.69 390.64C338.13 390.64 336.88 388.82 336.88 386.57C336.88 384.32 338.14 382.5 339.69 382.5C341.24 382.5 342.51 384.32 342.51 386.57Z" fill="white" stroke="#263238" stroke-linejoin="round"/>
<path id="Vector_103" d="M341.86 378.21C338.67 378.21 336.08 381.95 336.08 386.57C336.08 391.19 338.67 394.93 341.86 394.93H349.07V378.21H341.86Z" fill="white" stroke="#263238" stroke-linejoin="round"/>
<path id="Vector_104" d="M354.85 386.57C354.85 391.19 352.26 394.93 349.07 394.93C345.88 394.93 343.29 391.19 343.29 386.57C343.29 381.95 345.88 378.21 349.07 378.21C352.26 378.21 354.85 382 354.85 386.57Z" fill="white" stroke="#263238" stroke-linejoin="round"/>
<path id="Vector_105" d="M350.07 399.24C354.908 399.24 358.83 393.567 358.83 386.57C358.83 379.573 354.908 373.9 350.07 373.9C345.232 373.9 341.31 379.573 341.31 386.57C341.31 393.567 345.232 399.24 350.07 399.24Z" fill="white" stroke="#263238" stroke-linejoin="round"/>
<path id="Vector_106" d="M352.11 399.24C356.948 399.24 360.87 393.567 360.87 386.57C360.87 379.573 356.948 373.9 352.11 373.9C347.272 373.9 343.35 379.573 343.35 386.57C343.35 393.567 347.272 399.24 352.11 399.24Z" fill="white" stroke="#263238" stroke-linejoin="round"/>
<path id="Vector_107" d="M355.72 386.57C355.72 389.46 354.1 391.8 352.11 391.8C350.12 391.8 348.49 389.46 348.49 386.57C348.49 383.68 350.11 381.34 352.11 381.34C354.11 381.34 355.72 383.68 355.72 386.57Z" fill="white" stroke="#263238" stroke-linejoin="round"/>
<path id="Vector_108" d="M356.62 386.57C356.62 389.46 355 391.8 353.01 391.8C351.02 391.8 349.39 389.46 349.39 386.57C349.39 383.68 351.01 381.34 353.01 381.34C355.01 381.34 356.62 383.68 356.62 386.57Z" fill="white" stroke="#263238" stroke-linejoin="round"/>
<path id="Vector_109" d="M332.55 413.8C331 413.8 329.74 415.62 329.74 417.87C329.74 420.12 331 421.93 332.55 421.93H339.69V413.8H332.55Z" fill="white" stroke="#263238" stroke-linejoin="round"/>
<path id="Vector_110" d="M342.51 417.87C342.51 420.11 341.25 421.93 339.69 421.93C338.13 421.93 336.88 420.11 336.88 417.87C336.88 415.63 338.14 413.8 339.69 413.8C341.24 413.8 342.51 415.62 342.51 417.87Z" fill="white" stroke="#263238" stroke-linejoin="round"/>
<path id="Vector_111" d="M341.86 409.51C338.67 409.51 336.08 413.25 336.08 417.87C336.08 422.49 338.67 426.23 341.86 426.23H349.07V409.51H341.86Z" fill="white" stroke="#263238" stroke-linejoin="round"/>
<path id="Vector_112" d="M354.85 417.87C354.85 422.48 352.26 426.23 349.07 426.23C345.88 426.23 343.29 422.48 343.29 417.87C343.29 413.26 345.88 409.51 349.07 409.51C352.26 409.51 354.85 413.25 354.85 417.87Z" fill="white" stroke="#263238" stroke-linejoin="round"/>
<path id="Vector_113" d="M350.07 430.54C354.908 430.54 358.83 424.867 358.83 417.87C358.83 410.873 354.908 405.2 350.07 405.2C345.232 405.2 341.31 410.873 341.31 417.87C341.31 424.867 345.232 430.54 350.07 430.54Z" fill="white" stroke="#263238" stroke-linejoin="round"/>
<path id="Vector_114" d="M352.11 430.54C356.948 430.54 360.87 424.867 360.87 417.87C360.87 410.873 356.948 405.2 352.11 405.2C347.272 405.2 343.35 410.873 343.35 417.87C343.35 424.867 347.272 430.54 352.11 430.54Z" fill="white" stroke="#263238" stroke-linejoin="round"/>
<path id="Vector_115" d="M355.72 417.87C355.72 420.76 354.1 423.1 352.11 423.1C350.12 423.1 348.49 420.76 348.49 417.87C348.49 414.98 350.11 412.64 352.11 412.64C354.11 412.64 355.72 415 355.72 417.87Z" fill="white" stroke="#263238" stroke-linejoin="round"/>
<path id="Vector_116" d="M356.62 417.87C356.62 420.76 355 423.1 353.01 423.1C351.02 423.1 349.39 420.76 349.39 417.87C349.39 414.98 351.01 412.64 353.01 412.64C355.01 412.64 356.62 415 356.62 417.87Z" fill="white" stroke="#263238" stroke-linejoin="round"/>
<path id="Vector_117" d="M311.55 280.58C310.443 281.379 309.213 281.993 307.91 282.4" stroke="#263238" stroke-linejoin="round"/>
<path id="Vector_118" d="M298.94 282C296.412 280.932 294.287 279.091 292.869 276.742C291.451 274.392 290.813 271.654 291.047 268.919C291.28 266.185 292.373 263.594 294.168 261.519C295.964 259.444 298.37 257.99 301.043 257.366C303.715 256.741 306.517 256.979 309.046 258.044C311.575 259.11 313.702 260.948 315.123 263.296C316.543 265.644 317.184 268.382 316.954 271.116C316.723 273.851 315.633 276.443 313.84 278.52" stroke="#263238" stroke-linejoin="round"/>
<path id="Vector_119" d="M321.211 132.51C323.24 125.623 316.509 117.573 306.178 114.531C295.847 111.488 285.828 114.605 283.8 121.492C281.772 128.379 288.502 136.429 298.833 139.472C309.164 142.514 319.183 139.397 321.211 132.51Z" fill="white" stroke="#263238" stroke-linejoin="round"/>
<path id="Vector_120" d="M279 302C282.314 302 285 299.314 285 296C285 292.686 282.314 290 279 290C275.686 290 273 292.686 273 296C273 299.314 275.686 302 279 302Z" fill="white" stroke="#263238" stroke-linejoin="round"/>
</g>
<g id="leftHeadRobot">
<path id="Vector_121" d="M133.81 394.93C137.002 394.93 139.59 391.187 139.59 386.57C139.59 381.953 137.002 378.21 133.81 378.21C130.618 378.21 128.03 381.953 128.03 386.57C128.03 391.187 130.618 394.93 133.81 394.93Z" fill="white" stroke="#263238" stroke-linejoin="round"/>
<path id="Vector_122" d="M130.77 399.24C135.608 399.24 139.53 393.567 139.53 386.57C139.53 379.573 135.608 373.9 130.77 373.9C125.932 373.9 122.01 379.573 122.01 386.57C122.01 393.567 125.932 399.24 130.77 399.24Z" fill="white" stroke="#263238" stroke-linejoin="round"/>
<path id="Vector_123" d="M132.81 399.24C137.648 399.24 141.57 393.567 141.57 386.57C141.57 379.573 137.648 373.9 132.81 373.9C127.972 373.9 124.05 379.573 124.05 386.57C124.05 393.567 127.972 399.24 132.81 399.24Z" fill="white" stroke="#263238" stroke-linejoin="round"/>
<path id="Vector_124" d="M135 378.4C131.89 378.4 129.36 382.06 129.36 386.57C129.36 391.08 131.89 394.74 135 394.74H141.74V378.4H135Z" fill="white" stroke="#263238" stroke-linejoin="round"/>
<path id="Vector_125" d="M147.39 386.57C147.39 391.08 144.86 394.74 141.74 394.74C138.62 394.74 136.1 391.08 136.1 386.57C136.1 382.06 138.62 378.4 141.74 378.4C144.86 378.4 147.39 382.06 147.39 386.57Z" fill="white" stroke="#263238" stroke-linejoin="round"/>
<path id="Vector_126" d="M143.19 382.5C141.63 382.5 140.37 384.32 140.37 386.57C140.37 388.82 141.63 390.64 143.19 390.64H150.33V382.5H143.19Z" fill="white" stroke="#263238" stroke-linejoin="round"/>
<path id="Vector_127" d="M153.14 386.57C153.14 388.82 151.88 390.64 150.33 390.64C148.78 390.64 147.52 388.82 147.52 386.57C147.52 384.32 148.78 382.5 150.33 382.5C151.88 382.5 153.14 384.32 153.14 386.57Z" fill="white" stroke="#263238" stroke-linejoin="round"/>
<path id="Vector_128" d="M133.81 426.23C137.002 426.23 139.59 422.487 139.59 417.87C139.59 413.253 137.002 409.51 133.81 409.51C130.618 409.51 128.03 413.253 128.03 417.87C128.03 422.487 130.618 426.23 133.81 426.23Z" fill="white" stroke="#263238" stroke-linejoin="round"/>
<path id="Vector_129" d="M130.77 430.54C135.608 430.54 139.53 424.867 139.53 417.87C139.53 410.873 135.608 405.2 130.77 405.2C125.932 405.2 122.01 410.873 122.01 417.87C122.01 424.867 125.932 430.54 130.77 430.54Z" fill="white" stroke="#263238" stroke-linejoin="round"/>
<path id="Vector_130" d="M132.81 430.54C137.648 430.54 141.57 424.867 141.57 417.87C141.57 410.873 137.648 405.2 132.81 405.2C127.972 405.2 124.05 410.873 124.05 417.87C124.05 424.867 127.972 430.54 132.81 430.54Z" fill="white" stroke="#263238" stroke-linejoin="round"/>
<path id="Vector_131" d="M135 409.7C131.89 409.7 129.36 413.36 129.36 417.87C129.36 422.38 131.89 426 135 426H141.74V409.7H135Z" fill="white" stroke="#263238" stroke-linejoin="round"/>
<path id="Vector_132" d="M147.39 417.87C147.39 422.38 144.86 426.03 141.74 426.03C138.62 426.03 136.1 422.38 136.1 417.87C136.1 413.36 138.62 409.7 141.74 409.7C144.86 409.7 147.39 413.36 147.39 417.87Z" fill="white" stroke="#263238" stroke-linejoin="round"/>
<path id="Vector_133" d="M143.19 413.8C141.63 413.8 140.37 415.62 140.37 417.87C140.37 420.12 141.63 421.93 143.19 421.93H150.33V413.8H143.19Z" fill="white" stroke="#263238" stroke-linejoin="round"/>
<path id="Vector_134" d="M153.14 417.87C153.14 420.11 151.88 421.93 150.33 421.93C148.78 421.93 147.52 420.11 147.52 417.87C147.52 415.63 148.78 413.8 150.33 413.8C151.88 413.8 153.14 415.62 153.14 417.87Z" fill="white" stroke="#263238" stroke-linejoin="round"/>
<path id="Vector_135" d="M91.66 277.17C109.549 277.17 124.05 256.195 124.05 230.32C124.05 204.445 109.549 183.47 91.66 183.47C73.7715 183.47 59.27 204.445 59.27 230.32C59.27 256.195 73.7715 277.17 91.66 277.17Z" fill="#263238" stroke="#263238" stroke-linejoin="round"/>
<path id="Vector_136" d="M99.18 277.17C117.069 277.17 131.57 256.195 131.57 230.32C131.57 204.445 117.069 183.47 99.18 183.47C81.2915 183.47 66.79 204.445 66.79 230.32C66.79 256.195 81.2915 277.17 99.18 277.17Z" fill="white" stroke="#263238" stroke-linejoin="round"/>
<path id="Vector_137" d="M104.83 199.42C93.03 199.42 83.46 213.25 83.46 230.32C83.46 247.39 93.03 261.23 104.83 261.23H131.49V199.42H104.83Z" fill="white" stroke="#263238" stroke-linejoin="round"/>
<path id="Vector_138" d="M131.49 261.23C143.292 261.23 152.86 247.391 152.86 230.32C152.86 213.249 143.292 199.41 131.49 199.41C119.688 199.41 110.12 213.249 110.12 230.32C110.12 247.391 119.688 261.23 131.49 261.23Z" fill="white" stroke="#263238" stroke-linejoin="round"/>
<path id="Vector_139" d="M163.35 357.59C167.35 347.35 164.49 330.85 164.49 330.85C161.427 328.804 158.891 326.063 157.09 322.85C153.68 317.16 158.23 310.33 158.23 310.33L153.11 300.09L158.23 287C158.23 287 150.83 267.08 149.13 262.53C147.43 257.98 150.26 258.53 153.68 251.72C157.1 244.91 158.8 228.39 159.37 214.17C159.94 199.95 150.26 149.88 173.02 119.17C195.67 88.6 241.39 85.07 241.85 85.04L241.24 84.91C240.15 84.67 239.06 84.44 237.93 84.22H237.8C236.47 83.96 235.1 83.72 233.71 83.5C235.097 83.72 236.457 83.96 237.79 84.22C222.236 81.1774 206.25 81.0791 190.66 83.93C141.16 93.03 113.85 140.82 109.87 160.74C105.89 180.66 107.59 219.91 107.59 233C107.59 246.09 103.04 267.13 110.44 287.62C117.84 308.11 134.9 345.62 139.44 355.32C143.98 365.02 149.12 376.94 166.18 379.79L167.69 380.02C164.77 376.16 160 366.27 163.35 357.59Z" fill="white" stroke="#263238" stroke-linejoin="round"/>
<path id="Vector_140" d="M131.9 197.12C131.78 179.3 128.58 141.63 146.73 113.4C151.09 106.61 154.92 100.62 159.88 96.32" stroke="#263238" stroke-linejoin="round"/>
<g id="Vector_141">
<path d="M136.92 309.56C136.92 309.56 131.67 323.83 133 339.16L136.92 309.56Z" fill="white"/>
<path d="M136.92 309.56C136.92 309.56 131.67 323.83 133 339.16" stroke="#263238" stroke-linejoin="round"/>
</g>
<path id="Vector_142" d="M153.43 227.16C154.542 226.15 155.431 224.919 156.039 223.546C156.648 222.173 156.962 220.687 156.962 219.185C156.962 217.683 156.648 216.197 156.039 214.824C155.431 213.451 154.542 212.22 153.43 211.21C147.5 205.83 139.43 199.71 133.43 199.71C127.43 199.71 119.33 205.83 113.43 211.21C112.315 212.218 111.424 213.448 110.814 214.822C110.204 216.196 109.888 217.682 109.888 219.185C109.888 220.688 110.204 222.174 110.814 223.548C111.424 224.922 112.315 226.152 113.43 227.16C119.36 232.54 127.43 238.67 133.43 238.67C139.43 238.67 147.5 232.54 153.43 227.16Z" fill="#263238" stroke="#263238" stroke-linejoin="round"/>
<path id="Vector_143" d="M142.7 266.18C140.39 273.7 136.34 279.48 139.81 282.37C143.28 285.26 158.23 287 158.23 287C158.23 287 150.83 267.08 149.13 262.53C148.726 261.656 148.566 260.688 148.67 259.73C147.18 259.87 144.35 260.8 142.7 266.18Z" fill="#263238" stroke="#263238" stroke-linejoin="round"/>
<path id="Vector_144" d="M153.11 300.12C149.661 299.989 146.248 300.857 143.28 302.62C140.551 304.291 138.347 306.696 136.92 309.56H158.23L153.11 300.12Z" fill="#263238" stroke="#263238" stroke-linejoin="round"/>
<path id="Vector_145" d="M157.09 322.88C153.68 317.19 158.23 310.36 158.23 310.36L157.82 309.56H136.92C136.92 309.56 136.92 317.65 147.33 323.44C157.74 329.23 164.49 330.85 164.49 330.85C161.43 328.813 158.895 326.082 157.09 322.88Z" fill="white" stroke="#263238" stroke-linejoin="round"/>
<path id="Vector_146" d="M130.55 234.17C136.835 234.17 141.93 227.463 141.93 219.19C141.93 210.917 136.835 204.21 130.55 204.21C124.265 204.21 119.17 210.917 119.17 219.19C119.17 227.463 124.265 234.17 130.55 234.17Z" fill="#6B6B6B" stroke="#263238" stroke-linejoin="round"/>
<path id="Vector_147" d="M130.55 230.43C135.267 230.43 139.09 225.398 139.09 219.19C139.09 212.982 135.267 207.95 130.55 207.95C125.833 207.95 122.01 212.982 122.01 219.19C122.01 225.398 125.833 230.43 130.55 230.43Z" fill="#263238" stroke="#263238" stroke-linejoin="round"/>
<path id="Vector_148" d="M135.53 219.19C135.53 215.57 133.3 212.63 130.53 212.63C127.76 212.63 125.53 215.57 125.53 219.19C125.53 222.81 127.76 225.74 130.53 225.74C133.3 225.74 135.53 222.81 135.53 219.19Z" fill="#92E3A9" stroke="#263238" stroke-linejoin="round"/>
</g>
</g>
</svg>
