<svg width="577" height="437" viewBox="0 0 577 437" fill="none" xmlns="http://www.w3.org/2000/svg">
<g id="Group 3">
<g id="freepik--Plants--inject-112">
<path id="Vector" d="M102.38 54.51C102.38 54.51 102.38 45.98 90.44 34.04C78.5 22.1 70.82 15.27 70.82 15.27C70.82 15.27 64.82 34.89 75.93 46.83C87.04 58.77 102.38 69.83 102.38 69.83V54.51Z" fill="#92E3A9"/>
<path id="Vector_2" d="M85.05 107.79C85.05 107.79 85.05 99.26 73.05 87.31C61.05 75.36 53.43 68.55 53.43 68.55C53.43 68.55 47.43 88.17 58.55 100.11C69.67 112.05 85 123.11 85 123.11L85.05 107.79Z" fill="#92E3A9"/>
<path id="Vector_3" d="M101.63 69C101.63 69 102.53 60.52 115.63 49.9C128.73 39.28 137.12 33.31 137.12 33.31C137.12 33.31 141 53.5 128.74 64.2C116.48 74.9 100 84.31 100 84.31L101.63 69Z" fill="#92E3A9"/>
<path id="Vector_4" d="M80.69 132C80.69 132 82.48 123.66 96.69 114.48C110.9 105.3 119.81 100.24 119.81 100.24C119.81 100.24 121.53 120.68 108.19 130.03C94.85 139.38 77.5 147.03 77.5 147.03L80.69 132Z" fill="#92E3A9"/>
<path id="Vector_5" d="M84.63 200.56C84.63 200.56 84.63 192.03 96.57 180.08C108.51 168.13 116.19 161.32 116.19 161.32C116.19 161.32 122.19 180.94 111.07 192.88C99.95 204.82 84.63 215.88 84.63 215.88V200.56Z" fill="#92E3A9"/>
<path id="Vector_6" d="M84.43 217.3C84.43 217.3 85.64 208.86 75.51 195.3C65.38 181.74 58.76 174 58.76 174C58.76 174 50.06 192.58 59.34 206C68.62 219.42 82.24 232.56 82.24 232.56L84.43 217.3Z" fill="#92E3A9"/>
<path id="Vector_7" d="M72.65 266.92C72.65 266.92 72.65 258.39 84.59 246.45C96.53 234.51 104.21 227.68 104.21 227.68C104.21 227.68 110.21 247.3 99.1 259.25C87.99 271.2 72.65 282.25 72.65 282.25V266.92Z" fill="#92E3A9"/>
<path id="Vector_8" d="M80.63 311.92C80.63 311.92 78.46 303.66 86.99 289.08C95.52 274.5 101.22 266 101.22 266C101.22 266 111.97 283.47 104.22 297.83C96.47 312.19 84.47 326.83 84.47 326.83L80.63 311.92Z" fill="#92E3A9"/>
<path id="Vector_9" d="M103.46 52.32C102.857 61.2034 101.766 70.0468 100.19 78.81C95.47 103.2 83.67 118.94 79 141C74.33 163.06 87.83 191.42 84.2 219.71C80.57 248 69.55 263.71 72.7 282.63C75.85 301.55 92.37 352.63 92.37 352.63" stroke="#263238" stroke-width="1.20076" stroke-linecap="round" stroke-linejoin="round"/>
<path id="Vector_10" d="M101.51 74.71L114.38 64.83" stroke="#263238" stroke-width="1.20076" stroke-linecap="round" stroke-linejoin="round"/>
<path id="Vector_11" d="M102.11 63.34L96.72 53.76" stroke="#263238" stroke-width="1.20076" stroke-linecap="round" stroke-linejoin="round"/>
<path id="Vector_12" d="M79.66 140C79.66 140 90.44 131.92 101.51 123.84" stroke="#263238" stroke-width="1.20076" stroke-linecap="round" stroke-linejoin="round"/>
<path id="Vector_13" d="M85.05 123.14C85.05 123.14 76.05 105.54 65.89 93.87" stroke="#263238" stroke-width="1.20076" stroke-linecap="round" stroke-linejoin="round"/>
<path id="Vector_14" d="M85.05 212.69C91.1862 201.356 98.9335 190.971 108.05 181.86" stroke="#263238" stroke-width="1.20076" stroke-linecap="round" stroke-linejoin="round"/>
<path id="Vector_15" d="M83 224.67C83 224.67 77.62 211.8 71.33 202.52C65.04 193.24 64.1 192 64.1 192" stroke="#263238" stroke-width="1.20076" stroke-linecap="round" stroke-linejoin="round"/>
<path id="Vector_16" d="M72.65 282.6C75.3828 275.829 78.6289 269.277 82.36 263C86.0867 257.175 90.2912 251.669 94.93 246.54" stroke="#263238" stroke-width="1.20076" stroke-linecap="round" stroke-linejoin="round"/>
<path id="Vector_17" d="M84.51 326.77C84.51 326.77 83.25 316.55 87.74 307.87C92.23 299.19 97.32 287.82 99.42 283.33" stroke="#263238" stroke-width="1.20076" stroke-linecap="round" stroke-linejoin="round"/>
<path id="Vector_18" d="M24.17 168.48C24.17 168.48 23.25 163.13 29.44 154.34C35.63 145.55 39.71 140.44 39.71 140.44C39.71 140.44 45.58 152.1 39.92 160.79C35.7164 166.942 31.0068 172.732 25.84 178.1L24.17 168.48Z" fill="#92E3A9"/>
<path id="Vector_19" d="M40.83 200C40.83 200 39.9 194.65 46.09 185.87C52.28 177.09 56.36 172 56.36 172C56.36 172 62.23 183.65 56.58 192.35C52.3746 198.503 47.6615 204.293 42.49 209.66L40.83 200Z" fill="#92E3A9"/>
<path id="Vector_20" d="M26.22 177.5C26.22 177.5 24.73 172.28 15.34 167.05C5.95001 161.82 0.0600073 159 0.0600073 159C0.0600073 159 -0.169993 172 8.70001 177.41C15.1563 181.132 21.9133 184.307 28.9 186.9L26.22 177.5Z" fill="#92E3A9"/>
<path id="Vector_21" d="M46.18 214.69C46.18 214.69 44.18 209.69 34.27 205.44C24.36 201.19 18.27 199.02 18.27 199.02C18.27 199.02 19.41 212.02 28.79 216.44C35.6047 219.458 42.6591 221.904 49.88 223.75L46.18 214.69Z" fill="#92E3A9"/>
<path id="Vector_22" d="M51.16 258.13C51.16 258.13 50.23 252.78 41.45 246.59C32.67 240.4 27.11 237 27.11 237C27.11 237 25.49 249.95 33.74 256.24C39.77 260.622 46.1555 264.492 52.83 267.81L51.16 258.13Z" fill="#92E3A9"/>
<path id="Vector_23" d="M53.1 268.61C53.1 268.61 51.43 263.45 56.31 253.87C61.19 244.29 64.49 238.65 64.49 238.65C64.49 238.65 71.97 249.35 67.6 258.76C64.3164 265.45 60.4762 271.853 56.12 277.9L53.1 268.61Z" fill="#92E3A9"/>
<path id="Vector_24" d="M68.09 311.76C68.09 311.76 68.71 306.37 77.09 299.68C85.47 292.99 90.86 289.24 90.86 289.24C90.86 289.24 93.21 302.08 85.33 308.83C79.5809 313.544 73.4498 317.772 67 321.47L68.09 311.76Z" fill="#92E3A9"/>
<path id="Vector_25" d="M65.88 298.45C65.88 298.45 64.95 293.1 56.16 286.91C47.37 280.72 41.82 277.27 41.82 277.27C41.82 277.27 40.21 290.27 48.46 296.51C54.4873 300.89 60.8694 304.761 67.54 308.08L65.88 298.45Z" fill="#92E3A9"/>
<path id="Vector_26" d="M65.76 327.53C65.76 327.53 66.22 322.12 59.29 313.9C52.36 305.68 47.85 301 47.85 301C47.85 301 43 313.07 49.4 321.24C54.1202 326.998 59.3151 332.35 64.93 337.24L65.76 327.53Z" fill="#92E3A9"/>
<path id="Vector_27" d="M23.26 167.22C24.6048 172.725 26.2473 178.153 28.18 183.48C33.79 198.26 42.9 206.85 48.25 220.15C53.6 233.45 48.19 252.72 53.54 270.07C58.89 287.42 67.54 296.07 67.54 308.28C67.54 320.49 62.8 354.33 62.8 354.33" stroke="#263238" stroke-width="1.20076" stroke-linecap="round" stroke-linejoin="round"/>
<path id="Vector_28" d="M26.91 181.05L17.77 176.25" stroke="#263238" stroke-width="1.20076" stroke-linecap="round" stroke-linejoin="round"/>
<path id="Vector_29" d="M25.3 173.98L27.64 167.39" stroke="#263238" stroke-width="1.20076" stroke-linecap="round" stroke-linejoin="round"/>
<path id="Vector_30" d="M47.7 219.59C47.7 219.59 40.06 215.69 32.24 211.83" stroke="#263238" stroke-width="1.20076" stroke-linecap="round" stroke-linejoin="round"/>
<path id="Vector_31" d="M42.49 209.63C42.49 209.63 46.21 197.63 51.33 189.19" stroke="#263238" stroke-width="1.20076" stroke-linecap="round" stroke-linejoin="round"/>
<path id="Vector_32" d="M52.21 265.79C47.1221 259.36 41.126 253.704 34.41 249" stroke="#263238" stroke-width="1.20076" stroke-linecap="round" stroke-linejoin="round"/>
<path id="Vector_33" d="M54.83 273.07C56.044 267.889 57.6863 262.819 59.74 257.91C62.68 251.41 63.11 250.56 63.11 250.56" stroke="#263238" stroke-width="1.20076" stroke-linecap="round" stroke-linejoin="round"/>
<path id="Vector_34" d="M67.16 317.52C67.16 317.52 73.22 310.09 76.99 307.31C79.2668 305.636 81.4038 303.78 83.38 301.76" stroke="#263238" stroke-width="1.20076" stroke-linecap="round" stroke-linejoin="round"/>
<path id="Vector_35" d="M67.58 308.28C65.1305 304.317 62.3825 300.546 59.36 297C56.3909 293.738 53.1565 290.728 49.69 288" stroke="#263238" stroke-width="1.20076" stroke-linecap="round" stroke-linejoin="round"/>
<path id="Vector_36" d="M64.93 337.26C64.93 337.26 64.61 330.72 60.86 325.77C57.11 320.82 52.67 314.23 50.86 311.64" stroke="#263238" stroke-width="1.20076" stroke-linecap="round" stroke-linejoin="round"/>
<path id="Vector_37" d="M100.06 435.54H50.22C49.1777 435.54 48.1781 435.126 47.4411 434.389C46.704 433.652 46.29 432.652 46.29 431.61L33.93 349.06H116.35L104 431.61C104 432.127 103.898 432.639 103.7 433.116C103.502 433.594 103.211 434.027 102.845 434.392C102.479 434.758 102.045 435.047 101.567 435.244C101.089 435.441 100.577 435.541 100.06 435.54V435.54Z" fill="#263238" stroke="#263238" stroke-width="1.20076" stroke-linecap="round" stroke-linejoin="round"/>
</g>
<g id="floatingObj">
<path id="Vector_38" d="M374.431 35.1058L362.545 46.9923L374.431 58.8788L386.318 46.9923L374.431 35.1058Z" stroke="#263238" stroke-width="1.20076" stroke-linecap="round" stroke-linejoin="round"/>
<path id="Vector_39" d="M252.676 1.47706L246.192 7.96124L252.676 14.4454L259.16 7.96123L252.676 1.47706Z" stroke="#263238" stroke-width="1.20076" stroke-linecap="round" stroke-linejoin="round"/>
<path id="Vector_40" d="M523.652 60.9399L517.168 67.424L523.652 73.9082L530.136 67.424L523.652 60.9399Z" stroke="#263238" stroke-width="1.20076" stroke-linecap="round" stroke-linejoin="round"/>
<path id="Vector_41" d="M182.31 81.82C182.312 80.8678 182.031 79.9365 181.504 79.1439C180.976 78.3514 180.225 77.7334 179.345 77.3681C178.466 77.0028 177.498 76.9067 176.564 77.0919C175.63 77.2772 174.772 77.7355 174.099 78.4088C173.426 79.0821 172.967 79.9401 172.782 80.8741C172.597 81.808 172.693 82.776 173.058 83.6553C173.423 84.5346 174.041 85.2858 174.834 85.8135C175.626 86.3413 176.558 86.622 177.51 86.62C178.783 86.62 180.004 86.1143 180.904 85.2141C181.804 84.3139 182.31 83.093 182.31 81.82V81.82Z" stroke="#263238" stroke-width="1.20076" stroke-linecap="round" stroke-linejoin="round"/>
<path id="Vector_42" d="M555.75 342.38C555.752 341.428 555.472 340.497 554.944 339.705C554.417 338.913 553.666 338.295 552.788 337.929C551.909 337.563 550.941 337.467 550.008 337.651C549.074 337.836 548.216 338.293 547.542 338.965C546.869 339.638 546.41 340.495 546.223 341.428C546.037 342.361 546.131 343.329 546.495 344.208C546.859 345.088 547.475 345.84 548.267 346.369C549.058 346.898 549.988 347.18 550.94 347.18C551.571 347.181 552.196 347.058 552.78 346.817C553.364 346.577 553.894 346.223 554.341 345.778C554.787 345.332 555.142 344.802 555.384 344.219C555.626 343.636 555.75 343.011 555.75 342.38V342.38Z" stroke="#263238" stroke-width="1.20076" stroke-linecap="round" stroke-linejoin="round"/>
<path id="Vector_43" d="M439.27 99.83C439.27 98.8806 438.989 97.9526 438.461 97.1632C437.934 96.3739 437.184 95.7586 436.307 95.3953C435.43 95.032 434.465 94.937 433.534 95.1222C432.602 95.3074 431.747 95.7646 431.076 96.4358C430.405 97.1071 429.947 97.9624 429.762 98.8935C429.577 99.8246 429.672 100.79 430.035 101.667C430.399 102.544 431.014 103.294 431.803 103.821C432.593 104.348 433.521 104.63 434.47 104.63C435.1 104.63 435.725 104.506 436.307 104.265C436.889 104.023 437.418 103.67 437.864 103.224C438.31 102.778 438.663 102.249 438.905 101.667C439.146 101.084 439.27 100.46 439.27 99.83V99.83Z" stroke="#263238" stroke-width="1.20076" stroke-linecap="round" stroke-linejoin="round"/>
<path id="Vector_44" d="M63.44 135.85C63.442 134.898 63.1616 133.967 62.6342 133.175C62.1069 132.383 61.3564 131.765 60.4776 131.399C59.5989 131.033 58.6315 130.937 57.6978 131.121C56.7641 131.306 55.9061 131.763 55.2324 132.435C54.5587 133.108 54.0996 133.965 53.9132 134.898C53.7268 135.831 53.8214 136.799 54.1852 137.678C54.5489 138.558 55.1655 139.31 55.9567 139.839C56.7479 140.368 57.6782 140.65 58.63 140.65C59.904 140.65 61.1259 140.145 62.0277 139.245C62.9294 138.345 63.4374 137.124 63.44 135.85V135.85Z" stroke="#263238" stroke-width="1.20076" stroke-linecap="round" stroke-linejoin="round"/>
</g>
<g id="freepik--Device--inject-112">
<path id="Vector_45" d="M100.34 120H527.61C530.989 120 534.229 121.342 536.619 123.731C539.008 126.121 540.35 129.361 540.35 132.74V413.91H87.61V132.78C87.6048 131.104 87.9301 129.444 88.5673 127.895C89.2046 126.345 90.1413 124.936 91.3238 123.749C92.5063 122.562 93.9113 121.62 95.4585 120.976C97.0056 120.333 98.6644 120.001 100.34 120V120Z" fill="white" stroke="#263238" stroke-width="1.20076" stroke-linecap="round" stroke-linejoin="round"/>
<path id="Vector_46" d="M470.59 399.76H159.44V415.09H470.59V399.76Z" fill="#263238" stroke="#263238" stroke-width="1.20076" stroke-linecap="round" stroke-linejoin="round"/>
<path id="Vector_47" d="M470.59 407.15H159.44V415.1H470.59V407.15Z" fill="white" stroke="#263238" stroke-width="1.20076" stroke-linecap="round" stroke-linejoin="round"/>
<path id="Vector_48" d="M51 424.18C51 424.18 56.11 430.43 71.44 435.54H558.59C558.59 435.54 569.95 432.7 575.06 424.75L51 424.18Z" fill="#263238" stroke="#263238" stroke-width="1.20076" stroke-linecap="round" stroke-linejoin="round"/>
<path id="Vector_49" d="M572.3 412.99H53.81C51.6782 412.99 49.95 414.718 49.95 416.85V421.07C49.95 423.202 51.6782 424.93 53.81 424.93H572.3C574.432 424.93 576.16 423.202 576.16 421.07V416.85C576.16 414.718 574.432 412.99 572.3 412.99Z" fill="white" stroke="#263238" stroke-width="1.20076" stroke-linecap="round" stroke-linejoin="round"/>
<path id="Vector_50" d="M317.85 128.93C317.85 128.139 317.615 127.366 317.176 126.708C316.736 126.05 316.112 125.537 315.381 125.234C314.65 124.932 313.846 124.853 313.07 125.007C312.294 125.161 311.581 125.542 311.022 126.102C310.462 126.661 310.081 127.374 309.927 128.15C309.772 128.926 309.852 129.73 310.154 130.461C310.457 131.192 310.97 131.816 311.628 132.256C312.285 132.695 313.059 132.93 313.85 132.93C314.911 132.93 315.928 132.509 316.678 131.758C317.429 131.008 317.85 129.991 317.85 128.93Z" fill="#263238"/>
<path id="Vector_51" d="M91.87 202.74C91.5703 202.74 91.2829 202.621 91.071 202.409C90.8591 202.197 90.74 201.91 90.74 201.61V168.68C90.74 168.379 90.8587 168.091 91.0704 167.877C91.282 167.664 91.5694 167.543 91.87 167.54V167.54C92.1724 167.54 92.4623 167.66 92.6761 167.874C92.8899 168.088 93.01 168.378 93.01 168.68V201.61C93.01 201.759 92.9805 201.907 92.923 202.045C92.8656 202.182 92.7815 202.308 92.6755 202.413C92.5695 202.518 92.4438 202.601 92.3055 202.657C92.1673 202.713 92.0192 202.741 91.87 202.74V202.74Z" fill="#263238" stroke="white" stroke-width="0.830552" stroke-linejoin="round"/>
<path id="Vector_52" d="M521.97 143H105.97V378.09H521.97V143Z" fill="#D1D1D1" stroke="#263238" stroke-width="1.20076" stroke-linejoin="round"/>
<path id="Vector_53" d="M521.98 143H175.11V156.9H521.98V143Z" fill="#263238"/>
<path id="Vector_54" d="M126.189 206.522C131.261 204.421 133.67 198.606 131.569 193.535C129.468 188.463 123.653 186.054 118.582 188.155C113.51 190.256 111.101 196.071 113.202 201.142C115.303 206.214 121.118 208.623 126.189 206.522Z" stroke="#263238" stroke-width="1.20076" stroke-linejoin="round"/>
<path id="Vector_55" d="M122.38 235.82C127.87 235.82 132.32 231.37 132.32 225.88C132.32 220.39 127.87 215.94 122.38 215.94C116.89 215.94 112.44 220.39 112.44 225.88C112.44 231.37 116.89 235.82 122.38 235.82Z" stroke="#263238" stroke-width="1.20076" stroke-linejoin="round"/>
<path id="Vector_56" d="M126.183 263.607C131.255 261.506 133.663 255.692 131.562 250.62C129.462 245.548 123.647 243.139 118.575 245.24C113.503 247.341 111.095 253.156 113.196 258.227C115.297 263.299 121.111 265.708 126.183 263.607Z" stroke="#263238" stroke-width="1.20076" stroke-linejoin="round"/>
<path id="Vector_57" d="M122.38 292.91C127.87 292.91 132.32 288.46 132.32 282.97C132.32 277.48 127.87 273.03 122.38 273.03C116.89 273.03 112.44 277.48 112.44 282.97C112.44 288.46 116.89 292.91 122.38 292.91Z" stroke="#263238" stroke-width="1.20076" stroke-linejoin="round"/>
<path id="Vector_58" d="M122.38 321.45C127.87 321.45 132.32 317 132.32 311.51C132.32 306.02 127.87 301.57 122.38 301.57C116.89 301.57 112.44 306.02 112.44 311.51C112.44 317 116.89 321.45 122.38 321.45Z" stroke="#263238" stroke-width="1.20076" stroke-linejoin="round"/>
<path id="Vector_59" d="M132.197 341.667C133.077 336.248 129.397 331.142 123.979 330.262C118.56 329.383 113.454 333.063 112.574 338.481C111.695 343.9 115.374 349.006 120.793 349.886C126.212 350.765 131.318 347.085 132.197 341.667Z" stroke="#263238" stroke-width="1.20076" stroke-linejoin="round"/>
<path id="Vector_60" d="M496.65 164.94H154.77V372.12H496.65V164.94Z" stroke="#263238" stroke-width="1.20076" stroke-linejoin="round"/>
<path id="Vector_61" d="M155.31 288.73H497.06" stroke="#263238" stroke-width="1.20076" stroke-linejoin="round"/>
<path id="Vector_62" d="M352.39 301.28H469.01" stroke="#263238" stroke-width="1.20076" stroke-linejoin="round"/>
<path id="Vector_63" d="M352.39 311.61H469.01" stroke="#263238" stroke-width="1.20076" stroke-linejoin="round"/>
<path id="Vector_64" d="M352.39 321.95H469.01" stroke="#263238" stroke-width="1.20076" stroke-linejoin="round"/>
<path id="Vector_65" d="M352.39 332.28H469.01" stroke="#263238" stroke-width="1.20076" stroke-linejoin="round"/>
<path id="Vector_66" d="M352.39 342.61H469.01" stroke="#263238" stroke-width="1.20076" stroke-linejoin="round"/>
<path id="Vector_67" d="M352.39 352.95H469.01" stroke="#263238" stroke-width="1.20076" stroke-linejoin="round"/>
<path id="Vector_68" d="M320.3 170.08V171.28" stroke="#263238" stroke-width="1.20076" stroke-linejoin="round"/>
<path id="Vector_69" d="M320.3 173.65V281.75" stroke="#263238" stroke-width="1.20076" stroke-linejoin="round" stroke-dasharray="2.38 2.38"/>
<path id="Vector_70" d="M320.3 282.94V284.14" stroke="#263238" stroke-width="1.20076" stroke-linejoin="round"/>
<path id="Vector_71" d="M325.43 287.46C325.43 286.445 325.129 285.454 324.565 284.61C324.002 283.766 323.201 283.109 322.263 282.72C321.326 282.332 320.294 282.231 319.299 282.429C318.304 282.627 317.39 283.115 316.673 283.833C315.955 284.55 315.467 285.464 315.269 286.459C315.071 287.454 315.172 288.486 315.561 289.423C315.949 290.361 316.606 291.162 317.45 291.725C318.294 292.289 319.285 292.59 320.3 292.59C320.974 292.591 321.642 292.46 322.265 292.202C322.888 291.945 323.454 291.567 323.93 291.09C324.407 290.614 324.785 290.048 325.042 289.425C325.3 288.802 325.431 288.134 325.43 287.46V287.46Z" fill="white" stroke="#263238" stroke-width="1.20076" stroke-linejoin="round"/>
<path id="Vector_72" d="M320.23 284.14V291.02" stroke="#263238" stroke-width="0.60038" stroke-linejoin="round"/>
<path id="Vector_73" d="M323.67 287.58H316.79" stroke="#263238" stroke-width="0.60038" stroke-linejoin="round"/>
<path id="Vector_74" d="M275.68 231.65H194.86C194.06 231.651 193.267 231.495 192.528 231.189C191.788 230.884 191.117 230.435 190.551 229.869C189.985 229.303 189.536 228.632 189.231 227.892C188.925 227.153 188.769 226.36 188.77 225.56V225.56C188.769 224.76 188.925 223.967 189.231 223.228C189.536 222.488 189.985 221.817 190.551 221.251C191.117 220.685 191.788 220.236 192.528 219.931C193.267 219.625 194.06 219.469 194.86 219.47H275.68C277.295 219.47 278.844 220.112 279.986 221.254C281.128 222.396 281.77 223.945 281.77 225.56V225.56C281.77 227.175 281.128 228.724 279.986 229.866C278.844 231.008 277.295 231.65 275.68 231.65V231.65Z" stroke="#263238" stroke-width="1.20076" stroke-linejoin="round"/>
<path id="Vector_75" d="M242.73 299.8H161.88V357.55H242.73V299.8Z" fill="#92E3A9" stroke="#263238" stroke-width="1.20076" stroke-linejoin="round"/>
<path id="Vector_76" d="M161.88 357.55L242.73 299.8" stroke="#263238" stroke-width="1.20076" stroke-linejoin="round"/>
<path id="Vector_77" d="M161.88 299.8L242.73 357.55" stroke="#263238" stroke-width="1.20076" stroke-linejoin="round"/>
<path id="Vector_78" d="M334.99 299.8H254.14V357.55H334.99V299.8Z" fill="#92E3A9" stroke="#263238" stroke-width="1.20076" stroke-linejoin="round"/>
<path id="Vector_79" d="M254.14 357.55L335 299.8" stroke="#263238" stroke-width="1.20076" stroke-linejoin="round"/>
<path id="Vector_80" d="M254.14 299.8L335 357.55" stroke="#263238" stroke-width="1.20076" stroke-linejoin="round"/>
<path id="Vector_81" d="M132.32 254.42H154.18" stroke="#263238" stroke-width="1.20076" stroke-linejoin="round"/>
</g>
<g id="holdingObj">
<g id="greenComponent">
<path id="Vector_82" d="M476.13 172H327.96V277.84H476.13V172Z" fill="#92E3A9" stroke="#263238" stroke-width="1.20076" stroke-linejoin="round"/>
<path id="Vector_83" d="M327.96 277.84L476.13 172" stroke="#263238" stroke-width="1.20076" stroke-linejoin="round"/>
<path id="Vector_84" d="M327.96 172L476.13 277.84" stroke="#263238" stroke-width="1.20076" stroke-linejoin="round"/>
</g>
<g id="Torso">
<path id="Vector_85" d="M460.38 226.62C461.663 228.423 462.845 230.296 463.92 232.23C464.773 233.767 465.444 235.398 465.92 237.09C465.92 237.09 466.55 236.54 469.92 233.53C473.29 230.52 473.59 227.68 473.59 227.68L470.4 223C470.4 223 462.39 222.39 460.38 226.62Z" fill="white" stroke="#263238" stroke-width="1.20076" stroke-linecap="round" stroke-linejoin="round"/>
<path id="Vector_86" d="M457.14 209C457.14 209 456.05 212.16 455.06 212.29C454.07 212.42 451.14 211.05 451.46 213.51C451.713 215.074 452.523 216.495 453.74 217.51C453.74 217.51 453.06 225.62 453.47 226.82C453.88 228.02 454.47 228.94 457.47 228.55L462.89 227.84C463.552 227.955 464.219 228.032 464.89 228.07C466.15 228.15 466.13 228.29 468.3 225.75C470.47 223.21 471.81 225.4 471.25 221.21C470.69 217.02 470.1 214.34 467.77 211.89C465.44 209.44 457.14 209 457.14 209Z" fill="white" stroke="#263238" stroke-width="1.20076" stroke-linecap="round" stroke-linejoin="round"/>
<path id="Vector_87" d="M456 214C455.73 214.92 455.71 215.72 456 215.79C456.29 215.86 456.66 215.18 456.93 214.26C457.2 213.34 457.22 212.53 456.93 212.46C456.64 212.39 456.26 213.09 456 214Z" fill="#263238"/>
<path id="Vector_88" d="M482.85 195.19L465.85 182.34C465.85 182.34 463.17 181.14 463.17 178.75C463.02 176.863 463.02 174.967 463.17 173.08C463.46 170.69 463.17 169.49 464.36 169.49C465.55 169.49 465.85 172.18 465.85 172.18L466.75 169.18C466.75 169.18 468.84 168.59 469.14 170.08C469.44 171.57 471.83 172.47 471.23 174.56C470.551 176.36 469.647 178.067 468.54 179.64C468.54 179.64 484.38 186.51 487.36 187.41C490.34 188.31 495.83 190.84 495.23 193.83C494.63 196.82 491.69 205.77 491.69 205.77L482.85 195.19Z" fill="white" stroke="#263238" stroke-width="1.20076" stroke-linecap="round" stroke-linejoin="round"/>
<path id="Vector_89" d="M466.73 235.83C466.73 235.83 462.57 238.69 457.73 242.27C451.73 246.71 451.63 257.01 451.2 258.05C450.5 259.78 470.14 281.15 472.95 284.75C475.76 288.35 477.5 292.5 477.5 292.5L496.5 314.5L501 289C501 289 489.56 241.89 488.88 238.48C488.2 235.07 487.06 230.63 487.06 230.63C487.06 230.63 488.9 220.12 491.28 211.63C493.66 203.14 494.63 197.71 494.45 196.33C494.27 194.95 486.92 194.16 483.88 194.1C480.84 194.04 481.12 194.46 481.12 194.46C481.12 194.46 474.51 209.81 474.12 210.56C473.73 211.31 466.73 235.83 466.73 235.83Z" fill="white" stroke="#263238" stroke-width="1.20076" stroke-linecap="round" stroke-linejoin="round"/>
<path id="Vector_90" d="M471.64 227C470.651 228.442 469.586 229.83 468.45 231.16C467.02 232.75 464.99 233.25 464.45 234.49C463.453 236.291 462.365 238.04 461.19 239.73C461.19 239.73 467.78 238.49 471.19 235.73C474.6 232.97 475.7 227.43 475.7 227.43C475.7 227.43 473.15 226.1 471.64 227Z" fill="white" stroke="#263238" stroke-width="1.20076" stroke-linecap="round" stroke-linejoin="round"/>
<path id="Vector_91" d="M437.22 281.22C437.22 281.22 411.17 272.98 408.65 271.79C407.509 271.261 406.264 270.994 405.006 271.008C403.748 271.022 402.509 271.316 401.38 271.87C399.04 272.87 396.7 272.1 396.64 273.14C396.58 274.18 398.09 274.78 398.95 274.42C400.042 274.146 401.164 274.005 402.29 274L392.29 278.27C392.29 278.27 392.08 280.12 393.41 280.27C394.74 280.42 396.67 281.4 398.64 281.27C400.61 281.14 409.14 275.78 409.14 275.78C413.715 278.018 418.137 280.553 422.38 283.37C428.83 287.73 438.84 292.42 442.16 291.86C445.48 291.3 449.39 285.91 448.9 283.65C446.78 274.05 437.22 281.22 437.22 281.22Z" fill="white" stroke="#263238" stroke-width="1.20076" stroke-linecap="round" stroke-linejoin="round"/>
<g id="Vector_92">
<path d="M469.94 260.16C469.94 260.16 462.17 270.16 457.94 275.42C453.71 280.68 449.46 289.86 445.94 289.62C442.42 289.38 438.07 282.34 438.29 280.44C438.51 278.54 443.29 274.44 446.09 267.04C448.15 261.55 451.77 252.24 453.49 247.84C454.12 246.23 454.25 244.99 455.62 243.95L457.73 242.27" fill="white"/>
<path d="M469.94 260.16C469.94 260.16 462.17 270.16 457.94 275.42C453.71 280.68 449.46 289.86 445.94 289.62C442.42 289.38 438.07 282.34 438.29 280.44C438.51 278.54 443.29 274.44 446.09 267.04C448.15 261.55 451.77 252.24 453.49 247.84C454.12 246.23 454.25 244.99 455.62 243.95L457.73 242.27" stroke="#263238" stroke-width="1.20076" stroke-linecap="round" stroke-linejoin="round"/>
</g>
<path id="Vector_93" d="M438.29 280.44C438.41 279.36 440.06 277.52 441.96 274.77C442.69 276.06 444.28 279.24 446.41 280.77C448.38 282.042 450.491 283.082 452.7 283.87C449.36 287.96 447.87 289.75 445.94 289.62C442.41 289.39 438.07 282.34 438.29 280.44Z" fill="white" stroke="#263238" stroke-width="1.20076" stroke-linecap="round" stroke-linejoin="round"/>
<path id="Vector_94" d="M478.91 199.6C480.14 196.75 481.12 194.46 481.12 194.46C481.12 194.46 480.83 194.03 483.88 194.1C486.93 194.17 495.4 195.1 495.58 196.45C495.783 199.194 495.129 201.933 493.71 204.29C491.35 202.36 484.11 199 478.91 199.6Z" fill="white" stroke="#263238" stroke-width="1.20076" stroke-linecap="round" stroke-linejoin="round"/>
<path id="Vector_95" d="M464.26 267.89C467.624 265.552 471.337 263.76 475.26 262.58" stroke="#263238" stroke-width="1.20076" stroke-linecap="round" stroke-linejoin="round"/>
<path id="Vector_96" d="M463.08 216C463.08 216 452.26 208.15 455.6 201.19C458.94 194.23 463.9 191.82 468.45 193.98C473 196.14 471.56 198.58 471.56 198.58C471.56 198.58 476.56 198.43 478.31 202.21C478.822 203.262 479.034 204.434 478.923 205.599C478.812 206.763 478.382 207.874 477.68 208.81C479.391 211.195 480.295 214.065 480.26 217C480.14 221.78 471.77 228.65 470.07 229.13C468.37 229.61 467.07 227.02 467.07 227.02C467.07 227.02 469.5 222.68 468.42 222.07C467.34 221.46 464.64 223.83 464.64 223.83C464.64 223.83 463.29 225.01 462.9 222.05C462.676 220.035 462.737 217.998 463.08 216V216Z" fill="#263238" stroke="#263238" stroke-width="1.20076" stroke-linecap="round" stroke-linejoin="round"/>
</g>
</g>
<g id="Group 2">
<path id="Vector_97" d="M476.27 294.15L474.94 307.46L458.53 350.48L454.98 400.59L461.63 401.04L474.5 352.25L491.79 320.32L499.77 349.59L524.41 398.14L530.71 394.42L515.3 344.71L506.43 293.71L502.88 288.39L476.27 294.15Z" fill="#263238" stroke="#263238" stroke-width="1.20076" stroke-linecap="round" stroke-linejoin="round"/>
<path id="Vector_98" d="M455 400.59C455 400.59 450 405.47 445.13 406.8C442.647 407.403 440.244 408.296 437.97 409.46L436.86 411.39C436.765 411.555 436.715 411.741 436.715 411.931C436.716 412.121 436.766 412.308 436.861 412.472C436.957 412.636 437.094 412.773 437.258 412.867C437.423 412.962 437.61 413.011 437.8 413.01H462.1C462.453 411.111 462.6 409.18 462.54 407.25C462.605 405.144 462.304 403.043 461.65 401.04L455 400.59Z" fill="white" stroke="#263238" stroke-width="1.20076" stroke-linecap="round" stroke-linejoin="round"/>
<path id="Vector_99" d="M524.41 398.14L524.05 401.85C524.05 401.85 522.52 405.68 520.21 407.22C517.9 408.76 515.1 408.76 515.1 410.29V413.11H524.57C524.57 413.11 526.57 413.36 529.43 410.8C532.29 408.24 532.76 405.94 534.8 404.66C536.84 403.38 536.85 401.59 535.8 398.77C534.75 395.95 530.68 394.42 530.68 394.42L524.41 398.14Z" fill="white" stroke="#263238" stroke-width="1.20076" stroke-linecap="round" stroke-linejoin="round"/>
</g>
</g>
</svg>
